<?xml version="1.0" standalone="no"?>
<!DOCTYPE svg PUBLIC "-//W3C//DTD SVG 20010904//EN"
 "http://www.w3.org/TR/2001/REC-SVG-20010904/DTD/svg10.dtd">
<svg version="1.0" xmlns="http://www.w3.org/2000/svg"
 width="588.000000pt" height="411.000000pt" viewBox="0 0 588.000000 411.000000"
 preserveAspectRatio="xMidYMid meet">

<g transform="translate(0.000000,411.000000) scale(0.100000,-0.100000)"
fill="#000000" stroke="none">
<path d="M500 2440 c-19 -10 -45 -24 -57 -31 -31 -17 -30 -66 2 -113 34 -50
34 -125 0 -181 -22 -35 -25 -52 -25 -132 0 -51 -4 -95 -10 -98 -19 -12 -51
-86 -71 -163 -15 -58 -18 -93 -14 -143 6 -61 4 -71 -24 -128 -17 -33 -49 -85
-71 -113 -31 -42 -40 -62 -40 -94 0 -39 1 -40 50 -58 l50 -18 37 31 c29 24 47
31 80 31 26 0 60 10 90 25 61 33 103 30 121 -7 9 -19 21 -28 36 -28 13 0 35
-9 49 -20 14 -11 30 -20 36 -20 6 0 26 -14 45 -30 37 -33 43 -53 54 -192 7
-83 9 -89 45 -125 20 -22 37 -49 37 -61 0 -12 18 -42 40 -66 22 -24 40 -48 40
-53 0 -5 18 -16 41 -23 32 -11 47 -11 73 -2 48 18 171 16 186 -3 6 -8 33 -27
58 -41 l47 -27 190 2 c175 2 193 1 227 -18 21 -12 45 -21 53 -21 20 0 20 53 0
84 -9 13 -18 46 -22 73 -5 46 -3 51 22 71 20 16 42 22 76 22 l49 0 -6 39 c-6
37 -4 41 54 100 34 34 64 71 67 82 9 29 -20 48 -73 49 -47 0 -122 20 -122 33
0 4 -16 5 -35 1 -22 -4 -35 -2 -35 4 0 7 -20 9 -54 5 -48 -5 -58 -2 -89 21
-29 22 -41 26 -75 20 -31 -5 -46 -2 -68 14 -35 26 -84 39 -84 23 0 -20 -41
-11 -77 16 l-35 27 6 66 c3 39 13 75 24 90 20 27 154 99 186 100 10 0 52 12
92 28 l73 27 7 52 c4 32 14 59 25 69 24 22 25 63 2 71 -10 4 -29 15 -42 25
-13 10 -30 18 -38 18 -17 0 -43 24 -43 39 0 6 -8 11 -18 11 -10 0 -45 24 -78
54 -32 30 -72 66 -87 80 -16 14 -33 26 -39 26 -6 0 -33 23 -60 51 l-50 50 6
53 c7 53 7 53 -26 66 -43 17 -78 49 -78 72 0 20 -42 24 -197 19 -69 -3 -84 -1
-89 13 -3 9 -11 16 -18 16 -6 0 -22 9 -35 19 -19 15 -36 17 -96 13 -67 -4 -74
-3 -87 17 -7 11 -20 21 -29 21 -22 0 -49 32 -49 58 0 17 -6 22 -27 22 -16 0
-37 2 -48 5 -11 2 -36 -4 -55 -15z"/>
</g>
</svg>
