<?xml version="1.0" standalone="no"?>
<!DOCTYPE svg PUBLIC "-//W3C//DTD SVG 20010904//EN"
 "http://www.w3.org/TR/2001/REC-SVG-20010904/DTD/svg10.dtd">
<svg version="1.0" xmlns="http://www.w3.org/2000/svg"
 width="588.000000pt" height="411.000000pt" viewBox="0 0 588.000000 411.000000"
 preserveAspectRatio="xMidYMid meet">

<g transform="translate(0.000000,411.000000) scale(0.100000,-0.100000)"
fill="#000000" stroke="none">
<path d="M2490 2034 c0 -9 -12 -28 -27 -42 -25 -23 -31 -24 -103 -18 -59 5
-80 3 -95 -9 -11 -8 -38 -15 -60 -15 -34 0 -131 -40 -265 -109 -8 -5 -16 -19
-18 -32 -2 -13 -19 -38 -39 -55 -35 -30 -35 -32 -22 -67 12 -33 11 -39 -8 -59
-26 -29 -44 -84 -37 -112 6 -24 -26 -59 -61 -69 -11 -3 -45 -15 -75 -26 -30
-12 -61 -21 -68 -21 -8 0 -47 -15 -88 -32 -66 -30 -74 -36 -80 -66 -3 -18 -10
-35 -15 -38 -5 -3 -9 -12 -9 -21 0 -12 8 -14 44 -9 27 4 47 3 51 -4 3 -5 19
-10 34 -10 16 0 34 -7 41 -15 8 -10 30 -15 60 -15 37 0 56 -6 78 -25 34 -28
43 -30 89 -13 29 11 35 10 56 -10 18 -17 36 -22 75 -22 28 0 53 -4 56 -9 3 -5
32 -12 63 -16 46 -5 65 -13 91 -38 50 -48 40 -87 -42 -167 -43 -41 -46 -48
-46 -96 0 -68 -28 -94 -101 -94 -44 0 -49 -2 -49 -22 0 -13 10 -39 21 -58 16
-26 20 -44 15 -77 -6 -49 -10 -47 104 -58 196 -20 206 -23 263 -71 21 -17 53
-35 70 -38 18 -4 115 -8 216 -9 l184 -3 27 -32 c19 -23 35 -32 58 -32 60 0
107 38 67 54 -9 3 -15 18 -15 35 0 16 -4 33 -10 36 -34 21 16 126 78 166 25
16 51 29 58 29 6 0 23 10 38 21 25 20 35 21 126 14 71 -5 110 -3 137 6 44 15
103 66 103 88 0 9 20 35 43 59 42 40 79 53 92 32 3 -6 23 -10 43 -10 20 0 46
-7 56 -15 26 -19 59 -19 98 1 21 11 61 16 122 17 78 2 91 5 94 20 3 13 -3 17
-26 17 -70 0 -142 57 -142 112 0 14 13 36 29 52 33 31 48 85 29 98 -7 4 -25 8
-39 8 -15 0 -32 6 -38 14 -7 8 -26 18 -44 22 -42 9 -57 26 -57 68 0 42 15 84
40 111 12 13 20 44 25 93 7 68 6 72 -13 72 -12 0 -42 24 -75 60 -29 33 -58 60
-64 60 -17 0 -53 46 -53 67 0 17 -8 22 -37 26 -21 3 -60 10 -88 16 -27 5 -85
10 -127 10 l-78 1 0 -28 c0 -37 -28 -62 -68 -62 -23 0 -42 11 -74 43 -24 23
-48 51 -54 62 -7 13 -30 23 -72 32 -34 7 -74 19 -90 27 -38 20 -112 101 -112
124 0 10 -9 27 -20 37 -17 16 -26 17 -77 6 -83 -16 -99 -14 -133 19 -34 33
-60 39 -60 14z"/>
</g>
</svg>
